<svg width="101" height="100" viewBox="0 0 101 100" fill="none" xmlns="http://www.w3.org/2000/svg">
<g filter="url(#filter0_d_52_1217)">
<path d="M44.9685 66.0782C44.5468 66.0889 44.1273 66.0141 43.7352 65.8584C43.3431 65.7026 42.9867 65.4691 42.6873 65.1719L27.8435 50.3282C27.2572 49.7418 26.9277 48.9465 26.9277 48.1172C26.9277 47.288 27.2572 46.4927 27.8435 45.9063C28.4299 45.3199 29.2252 44.9905 30.0545 44.9905C30.8837 44.9905 31.679 45.3199 32.2654 45.9063L44.906 58.5469L68.6717 34.8282C68.962 34.5378 69.3067 34.3075 69.6861 34.1504C70.0654 33.9932 70.472 33.9124 70.8826 33.9124C71.2932 33.9124 71.6998 33.9932 72.0792 34.1504C72.4585 34.3075 72.8032 34.5378 73.0935 34.8282C73.3839 35.1185 73.6142 35.4632 73.7713 35.8425C73.9285 36.2219 74.0093 36.6285 74.0093 37.0391C74.0093 37.4497 73.9285 37.8563 73.7713 38.2356C73.6142 38.615 73.3839 38.9597 73.0935 39.25L47.1717 65.1719C46.5858 65.753 45.7938 66.0788 44.9685 66.0782Z" fill="#10A711"/>
</g>
<g filter="url(#filter1_d_52_1217)">
<path d="M50.5001 93.75C41.9518 93.7372 33.5945 91.2204 26.4607 86.5106C19.3269 81.8007 13.7291 75.1042 10.359 67.2482C6.98884 59.3923 5.99398 50.7211 7.49731 42.306C9.00063 33.8909 12.9363 26.1006 18.818 19.8975C24.6998 13.6943 32.2699 9.35017 40.5932 7.40169C48.9165 5.45321 57.6283 5.98577 65.6522 8.93358C73.6762 11.8814 80.6608 17.1153 85.7432 23.9887C90.8256 30.8621 93.783 39.0738 94.2501 47.6093C94.297 48.4359 94.0141 49.2473 93.4633 49.8654C92.9126 50.4836 92.1391 50.8579 91.3126 50.9062C90.9008 50.9316 90.4881 50.8751 90.0982 50.7401C89.7084 50.6051 89.3491 50.3943 89.0411 50.1197C88.7332 49.8452 88.4826 49.5124 88.304 49.1405C88.1253 48.7686 88.022 48.3651 88.0001 47.9531C87.5762 40.1186 84.7056 32.6145 79.7926 26.4973C74.8796 20.38 68.1716 15.9578 60.6132 13.8534C53.0548 11.7489 45.0267 12.0682 37.6593 14.7663C30.2919 17.4644 23.9563 22.4053 19.5446 28.8934C15.133 35.3814 12.8674 43.0899 13.067 50.9332C13.2666 58.7766 15.9213 66.3598 20.6572 72.6151C25.3932 78.8704 31.9719 83.4827 39.467 85.8026C46.962 88.1224 54.996 88.033 62.4376 85.5468C67.1612 83.9748 71.5221 81.4726 75.263 78.1879C79.0039 74.9031 82.0491 70.9025 84.2188 66.4218C84.3836 66.0301 84.6264 65.676 84.9327 65.3813C85.2389 65.0866 85.602 64.8574 85.9999 64.7079C86.3977 64.5583 86.8218 64.4914 87.2463 64.5114C87.6709 64.5313 88.0869 64.6377 88.4689 64.8239C88.851 65.0101 89.191 65.2723 89.4682 65.5945C89.7454 65.9166 89.9541 66.2919 90.0813 66.6974C90.2085 67.1029 90.2517 67.5301 90.2082 67.9529C90.1647 68.3757 90.0354 68.7851 89.8282 69.1562C87.3033 74.3889 83.7535 79.0613 79.3894 82.8967C75.0253 86.7321 69.9356 89.6524 64.422 91.4843C59.9335 92.9838 55.2324 93.7489 50.5001 93.75Z" fill="#E99F48"/>
</g>
<defs>
<filter id="filter0_d_52_1217" x="22.9277" y="31.9124" width="55.0815" height="40.1669" filterUnits="userSpaceOnUse" color-interpolation-filters="sRGB">
<feFlood flood-opacity="0" result="BackgroundImageFix"/>
<feColorMatrix in="SourceAlpha" type="matrix" values="0 0 0 0 0 0 0 0 0 0 0 0 0 0 0 0 0 0 127 0" result="hardAlpha"/>
<feOffset dy="2"/>
<feGaussianBlur stdDeviation="2"/>
<feComposite in2="hardAlpha" operator="out"/>
<feColorMatrix type="matrix" values="0 0 0 0 0 0 0 0 0 0 0 0 0 0 0 0 0 0 0.25 0"/>
<feBlend mode="normal" in2="BackgroundImageFix" result="effect1_dropShadow_52_1217"/>
<feBlend mode="normal" in="SourceGraphic" in2="effect1_dropShadow_52_1217" result="shape"/>
</filter>
<filter id="filter1_d_52_1217" x="2.81543" y="4.25" width="95.4395" height="95.5" filterUnits="userSpaceOnUse" color-interpolation-filters="sRGB">
<feFlood flood-opacity="0" result="BackgroundImageFix"/>
<feColorMatrix in="SourceAlpha" type="matrix" values="0 0 0 0 0 0 0 0 0 0 0 0 0 0 0 0 0 0 127 0" result="hardAlpha"/>
<feOffset dy="2"/>
<feGaussianBlur stdDeviation="2"/>
<feComposite in2="hardAlpha" operator="out"/>
<feColorMatrix type="matrix" values="0 0 0 0 0 0 0 0 0 0 0 0 0 0 0 0 0 0 0.25 0"/>
<feBlend mode="normal" in2="BackgroundImageFix" result="effect1_dropShadow_52_1217"/>
<feBlend mode="normal" in="SourceGraphic" in2="effect1_dropShadow_52_1217" result="shape"/>
</filter>
</defs>
</svg>
