<svg width="60" height="60" viewBox="0 0 60 60" fill="none" xmlns="http://www.w3.org/2000/svg">
<g clip-path="url(#clip0_46_648)">
<path d="M30 60.0001C46.5685 60.0001 60 46.5686 60 30.0001C60 13.4315 46.5685 0 30 0C13.4315 0 0 13.4315 0 30.0001C0 46.5686 13.4315 60.0001 30 60.0001Z" fill="#50B748"/>
<path d="M26.545 59.7625C26.9883 59.8266 27.433 59.8808 27.8787 59.925C28.5847 59.975 29.2923 60 30 60C31.0002 60 31.9998 59.9499 32.995 59.85C33.9902 59.7499 34.9798 59.6002 35.96 59.4012C36.9401 59.2027 37.9096 58.9553 38.865 58.66C39.8207 58.3643 40.7611 58.0209 41.6825 57.6312C42.6036 57.2423 43.5048 56.8076 44.3825 56.3288C45.2602 55.8492 46.1133 55.326 46.9387 54.7612C47.7644 54.1956 48.5612 53.589 49.3262 52.9437C50.0915 52.2999 50.8241 51.6182 51.5212 50.9013C52.2184 50.1835 52.8792 49.4313 53.5012 48.6475C54.1224 47.8641 54.7039 47.0502 55.2438 46.2087C55.7843 45.3675 56.2824 44.4997 56.7363 43.6087C57.19 42.7172 57.5988 41.8036 57.9613 40.8712C58.3235 39.9388 58.6389 38.9889 58.9062 38.025C59.1736 37.0615 59.3926 36.0853 59.5625 35.1C59.7329 34.1138 59.8539 33.1196 59.925 32.1213C59.975 31.4153 60 30.7077 60 30C59.9957 29.0884 59.9498 28.1774 59.8625 27.27L40.8287 8.235C40.6002 8.00648 40.3299 7.82401 40.0325 7.6975C39.7258 7.56689 39.3958 7.4997 39.0625 7.5H20.3125C18.9375 7.5 17.8125 8.625 17.8125 10V50C17.8125 50.6875 18.0938 51.3125 18.5475 51.765L26.545 59.7625Z" fill="#10A711"/>
<path d="M20.3125 7.5C18.9375 7.5 17.8125 8.625 17.8125 10V50C17.8125 51.375 18.9375 52.5 20.3125 52.5H39.0625C40.4375 52.5 41.5625 51.375 41.5625 50V26.24C41.6443 26.2413 41.7256 26.2263 41.8015 26.1959C41.8774 26.1654 41.9465 26.1201 42.0047 26.0626C42.0629 26.0051 42.1091 25.9365 42.1405 25.861C42.1719 25.7854 42.1878 25.7043 42.1875 25.6225V24.3825C42.1887 24.2997 42.1733 24.2176 42.1424 24.1408C42.1115 24.0641 42.0657 23.9942 42.0075 23.9353C41.9493 23.8765 41.88 23.8298 41.8036 23.7979C41.7272 23.7661 41.6453 23.7498 41.5625 23.75V23.735C41.6443 23.7363 41.7256 23.7213 41.8015 23.6909C41.8774 23.6604 41.9465 23.6151 42.0047 23.5576C42.0629 23.5001 42.1091 23.4315 42.1405 23.356C42.1719 23.2804 42.1878 23.1993 42.1875 23.1175V21.8775C42.1885 21.7948 42.1731 21.7127 42.1421 21.636C42.1111 21.5593 42.0653 21.4895 42.0071 21.4307C41.949 21.3719 41.8797 21.3252 41.8034 21.2933C41.7271 21.2614 41.6452 21.245 41.5625 21.245V19.5388C41.7272 19.5342 41.8834 19.465 41.9976 19.3462C42.1117 19.2274 42.1745 19.0685 42.1725 18.9038V18.135C42.1752 17.9701 42.1126 17.8108 41.9983 17.6918C41.884 17.5729 41.7274 17.5039 41.5625 17.5V10C41.5625 8.625 40.4375 7.5 39.0625 7.5H20.3125ZM20.3125 8.75H39.0625C39.7663 8.75 40.3125 9.29625 40.3125 10V15H19.0625V10C19.0625 9.29625 19.6087 8.75 20.3125 8.75ZM27.1875 11.25C27.0217 11.25 26.8628 11.3158 26.7456 11.4331C26.6283 11.5503 26.5625 11.7092 26.5625 11.875C26.5625 12.0408 26.6283 12.1997 26.7456 12.3169C26.8628 12.4342 27.0217 12.5 27.1875 12.5C27.3533 12.5 27.5122 12.4342 27.6294 12.3169C27.7467 12.1997 27.8125 12.0408 27.8125 11.875C27.8125 11.7092 27.7467 11.5503 27.6294 11.4331C27.5122 11.3158 27.3533 11.25 27.1875 11.25ZM29.675 11.25C28.83 11.2375 28.83 12.5125 29.675 12.5H32.1975C33.0425 12.5125 33.0425 11.2375 32.1975 11.25H29.675ZM19.0625 16.25H40.3125V43.75H19.0625V16.25ZM29.6875 21.25C24.8625 21.25 20.9375 25.175 20.9375 30C20.9375 34.825 24.8625 38.75 29.6875 38.75C34.5125 38.75 38.4375 34.825 38.4375 30C38.4375 25.175 34.5125 21.25 29.6875 21.25ZM29.6875 22.5C33.8375 22.5 37.1875 25.85 37.1875 30C37.1875 34.15 33.8375 37.5 29.6875 37.5C25.5375 37.5 22.1875 34.15 22.1875 30C22.1875 25.85 25.5375 22.5 29.6875 22.5ZM33.62 26.4325L27.8125 32.2387L25.7563 30.1825L24.87 31.0662L27.8125 34.0087L34.5062 27.3162L33.62 26.4325ZM19.0625 45H40.3125V50C40.3125 50.7038 39.765 51.25 39.0625 51.25H20.3125C19.6087 51.25 19.0625 50.7038 19.0625 50V45ZM29.7625 46.875C29.035 46.875 28.43 47.4775 28.43 48.205C28.43 48.9338 29.035 49.5387 29.7625 49.5387C30.4912 49.5387 31.0963 48.9338 31.0963 48.205C31.0963 47.4775 30.4912 46.875 29.7625 46.875Z" fill="white"/>
</g>
<defs>
<clipPath id="clip0_46_648">
<rect width="60" height="60" fill="white"/>
</clipPath>
</defs>
</svg>
