<svg width="227" height="78" viewBox="0 0 227 78" fill="none" xmlns="http://www.w3.org/2000/svg">
<g filter="url(#filter0_d_27_1168)">
<path d="M101.816 60.184C100.749 60.824 98.9787 61.5707 96.504 62.424C94.072 63.2347 91.2133 63.64 87.928 63.64C84.216 63.64 81.1013 62.872 78.584 61.336C76.1093 59.8 74.232 57.688 72.952 55C71.672 52.312 71.032 49.24 71.032 45.784V36.632C71.032 33.0907 71.672 29.9973 72.952 27.352C74.232 24.664 76.1307 22.5733 78.648 21.08C81.208 19.5867 84.408 18.84 88.248 18.84C90.1253 18.84 92.0667 19.0533 94.072 19.48C96.0773 19.864 98.2747 20.5893 100.664 21.656L98.296 28.376C96.2053 27.5653 94.392 26.9893 92.856 26.648C91.3627 26.264 89.8693 26.072 88.376 26.072C85.048 26.072 82.6373 27.032 81.144 28.952C79.6507 30.8293 78.904 33.3893 78.904 36.632V45.784C78.904 48.856 79.6507 51.3733 81.144 53.336C82.68 55.2987 85.0693 56.28 88.312 56.28C89.2933 56.28 90.36 56.1947 91.512 56.024C92.664 55.8533 93.7733 55.6187 94.84 55.32V45.784H87.8V39.064H101.816V60.184ZM119.259 63H111.579V19.48H119.259V63ZM126.082 26.84V19.48H158.082V26.84H145.922V63H138.242V26.84H126.082ZM174.426 56.536C179.375 56.536 181.85 54.7013 181.85 51.032C181.85 49.5387 181.466 48.3653 180.698 47.512C179.972 46.6587 178.607 45.912 176.602 45.272L171.354 43.544C165.082 41.496 161.946 37.3787 161.946 31.192C161.946 27.608 163.055 24.664 165.274 22.36C167.535 20.0133 171.055 18.84 175.833 18.84C177.839 18.84 179.823 19.0747 181.786 19.544C183.748 19.9707 185.839 20.6747 188.058 21.656L185.69 28.248C183.642 27.4373 181.892 26.8613 180.442 26.52C179.034 26.136 177.583 25.944 176.09 25.944C174.127 25.944 172.57 26.3067 171.418 27.032C170.308 27.7147 169.754 28.9733 169.754 30.808C169.754 32.1733 170.138 33.304 170.906 34.2C171.716 35.0533 173.039 35.7787 174.874 36.376L180.122 38.104C183.279 39.1707 185.647 40.728 187.226 42.776C188.847 44.7813 189.658 47.448 189.658 50.776C189.658 54.616 188.442 57.7307 186.01 60.12C183.578 62.4667 179.759 63.64 174.554 63.64C172.506 63.64 170.372 63.4053 168.154 62.936C165.978 62.424 163.588 61.5707 160.986 60.376L163.354 53.784C165.743 54.808 167.77 55.5333 169.434 55.96C171.14 56.344 172.804 56.536 174.426 56.536ZM207.551 56.536C212.5 56.536 214.975 54.7013 214.975 51.032C214.975 49.5387 214.591 48.3653 213.823 47.512C213.097 46.6587 211.732 45.912 209.727 45.272L204.479 43.544C198.207 41.496 195.071 37.3787 195.071 31.192C195.071 27.608 196.18 24.664 198.399 22.36C200.66 20.0133 204.18 18.84 208.958 18.84C210.964 18.84 212.948 19.0747 214.911 19.544C216.873 19.9707 218.964 20.6747 221.183 21.656L218.815 28.248C216.767 27.4373 215.017 26.8613 213.567 26.52C212.159 26.136 210.708 25.944 209.215 25.944C207.252 25.944 205.695 26.3067 204.543 27.032C203.433 27.7147 202.879 28.9733 202.879 30.808C202.879 32.1733 203.263 33.304 204.031 34.2C204.841 35.0533 206.164 35.7787 207.999 36.376L213.247 38.104C216.404 39.1707 218.772 40.728 220.351 42.776C221.972 44.7813 222.783 47.448 222.783 50.776C222.783 54.616 221.567 57.7307 219.135 60.12C216.703 62.4667 212.884 63.64 207.679 63.64C205.631 63.64 203.497 63.4053 201.279 62.936C199.103 62.424 196.713 61.5707 194.111 60.376L196.479 53.784C198.868 54.808 200.895 55.5333 202.559 55.96C204.265 56.344 205.929 56.536 207.551 56.536Z" fill="white"/>
</g>
<g filter="url(#filter1_d_27_1168)">
<path fill-rule="evenodd" clip-rule="evenodd" d="M10 12C6.68629 12 4 14.6863 4 18V64C4 67.3137 6.68629 70 10 70H56C59.3137 70 62 67.3137 62 64V18C62 14.6863 59.3137 12 56 12H10ZM43.504 62.8785C45.9787 62.0252 47.7494 61.2785 48.816 60.6385V39.5185H34.8V46.2385H41.84V55.7745C40.7734 56.0732 39.664 56.3079 38.512 56.4785C37.36 56.6492 36.2934 56.7345 35.312 56.7345C32.0694 56.7345 29.68 55.7532 28.144 53.7905C26.6507 51.8279 25.904 49.3105 25.904 46.2385V37.0865C25.904 33.8439 26.6507 31.2839 28.144 29.4065C29.6374 27.4865 32.048 26.5265 35.376 26.5265C36.8694 26.5265 38.3627 26.7185 39.856 27.1025C41.392 27.4439 43.2054 28.0199 45.296 28.8305L47.664 22.1105C45.2747 21.0439 43.0774 20.3185 41.072 19.9345C39.0667 19.5079 37.1254 19.2945 35.248 19.2945C31.408 19.2945 28.208 20.0412 25.648 21.5345C23.1307 23.0279 21.232 25.1185 19.952 27.8065C18.672 30.4519 18.032 33.5452 18.032 37.0865V46.2385C18.032 49.6945 18.672 52.7665 19.952 55.4545C21.232 58.1425 23.1094 60.2545 25.584 61.7905C28.1014 63.3265 31.216 64.0945 34.928 64.0945C38.2134 64.0945 41.072 63.6892 43.504 62.8785Z" fill="white"/>
</g>
<defs>
<filter id="filter0_d_27_1168" x="67.032" y="18.84" width="159.751" height="52.8" filterUnits="userSpaceOnUse" color-interpolation-filters="sRGB">
<feFlood flood-opacity="0" result="BackgroundImageFix"/>
<feColorMatrix in="SourceAlpha" type="matrix" values="0 0 0 0 0 0 0 0 0 0 0 0 0 0 0 0 0 0 127 0" result="hardAlpha"/>
<feOffset dy="4"/>
<feGaussianBlur stdDeviation="2"/>
<feComposite in2="hardAlpha" operator="out"/>
<feColorMatrix type="matrix" values="0 0 0 0 0 0 0 0 0 0 0 0 0 0 0 0 0 0 0.25 0"/>
<feBlend mode="normal" in2="BackgroundImageFix" result="effect1_dropShadow_27_1168"/>
<feBlend mode="normal" in="SourceGraphic" in2="effect1_dropShadow_27_1168" result="shape"/>
</filter>
<filter id="filter1_d_27_1168" x="0" y="12" width="66" height="66" filterUnits="userSpaceOnUse" color-interpolation-filters="sRGB">
<feFlood flood-opacity="0" result="BackgroundImageFix"/>
<feColorMatrix in="SourceAlpha" type="matrix" values="0 0 0 0 0 0 0 0 0 0 0 0 0 0 0 0 0 0 127 0" result="hardAlpha"/>
<feOffset dy="4"/>
<feGaussianBlur stdDeviation="2"/>
<feComposite in2="hardAlpha" operator="out"/>
<feColorMatrix type="matrix" values="0 0 0 0 0 0 0 0 0 0 0 0 0 0 0 0 0 0 0.25 0"/>
<feBlend mode="normal" in2="BackgroundImageFix" result="effect1_dropShadow_27_1168"/>
<feBlend mode="normal" in="SourceGraphic" in2="effect1_dropShadow_27_1168" result="shape"/>
</filter>
</defs>
</svg>
