<svg width="33" height="33" viewBox="0 0 33 33" fill="none" xmlns="http://www.w3.org/2000/svg">
<circle cx="16.5" cy="16.5" r="16" fill="white" stroke="#5AC4A1"/>
<path d="M9.69375 22.1442C10.6344 21.4248 11.6858 20.8577 12.8479 20.4426C14.0099 20.0276 15.2273 19.8201 16.5 19.8201C17.7727 19.8201 18.9901 20.0276 20.1521 20.4426C21.3142 20.8577 22.3655 21.4248 23.3062 22.1442C23.9518 21.388 24.4545 20.5303 24.8141 19.5711C25.1738 18.612 25.3537 17.5883 25.3537 16.5C25.3537 14.0468 24.4913 11.9579 22.7667 10.2333C21.0421 8.50865 18.9532 7.64634 16.5 7.64634C14.0468 7.64634 11.9579 8.50865 10.2333 10.2333C8.50865 11.9579 7.64634 14.0468 7.64634 16.5C7.64634 17.5883 7.82618 18.612 8.18586 19.5711C8.54554 20.5303 9.04817 21.388 9.69375 22.1442ZM16.5 17.6067C15.4117 17.6067 14.4941 17.2332 13.7471 16.4862C13 15.7391 12.6265 14.8215 12.6265 13.7332C12.6265 12.645 13 11.7273 13.7471 10.9803C14.4941 10.2333 15.4117 9.85975 16.5 9.85975C17.5883 9.85975 18.5059 10.2333 19.2529 10.9803C20 11.7273 20.3735 12.645 20.3735 13.7332C20.3735 14.8215 20 15.7391 19.2529 16.4862C18.5059 17.2332 17.5883 17.6067 16.5 17.6067ZM16.5 27.5671C14.9691 27.5671 13.5303 27.2766 12.1838 26.6955C10.8373 26.1145 9.66608 25.326 8.67004 24.33C7.674 23.3339 6.88548 22.1626 6.30445 20.8162C5.72343 19.4697 5.43292 18.0309 5.43292 16.5C5.43292 14.9691 5.72343 13.5303 6.30445 12.1838C6.88548 10.8373 7.674 9.66608 8.67004 8.67004C9.66608 7.674 10.8373 6.88548 12.1838 6.30445C13.5303 5.72343 14.9691 5.43292 16.5 5.43292C18.0309 5.43292 19.4697 5.72343 20.8162 6.30445C22.1626 6.88548 23.3339 7.674 24.33 8.67004C25.326 9.66608 26.1145 10.8373 26.6955 12.1838C27.2766 13.5303 27.5671 14.9691 27.5671 16.5C27.5671 18.0309 27.2766 19.4697 26.6955 20.8162C26.1145 22.1626 25.326 23.3339 24.33 24.33C23.3339 25.326 22.1626 26.1145 20.8162 26.6955C19.4697 27.2766 18.0309 27.5671 16.5 27.5671Z" fill="#5AC4A1"/>
</svg>
