<svg width="60" height="60" viewBox="0 0 60 60" fill="none" xmlns="http://www.w3.org/2000/svg">
<g clip-path="url(#clip0_46_660)">
<path d="M30 60.0001C46.5685 60.0001 60 46.5686 60 30.0001C60 13.4315 46.5685 0 30 0C13.4315 0 0 13.4315 0 30.0001C0 46.5686 13.4315 60.0001 30 60.0001Z" fill="#FFA40B"/>
<path d="M26.5675 59.785C26.7132 59.8082 26.859 59.8302 27.005 59.8512C28.0002 59.9507 28.9998 60.0004 30 60C30.7077 60 31.4153 59.975 32.1213 59.925C33.1196 59.8539 34.1138 59.7329 35.1 59.5625C36.0853 59.3926 37.0615 59.1736 38.025 58.9062C38.9889 58.6389 39.9388 58.3235 40.8712 57.9613C41.8036 57.5988 42.7172 57.19 43.6088 56.7363C44.4998 56.2824 45.3675 55.7843 46.2087 55.2438C47.0502 54.7039 47.8641 54.1224 48.6475 53.5012C49.4313 52.8792 50.1835 52.2184 50.9013 51.5212C51.6182 50.8241 52.2999 50.0915 52.9437 49.3262C53.589 48.5612 54.1956 47.7644 54.7612 46.9387C55.326 46.1133 55.8492 45.2602 56.3288 44.3825C56.8076 43.5048 57.2423 42.6036 57.6312 41.6825C58.0209 40.7611 58.3643 39.8207 58.66 38.865C58.9553 37.9096 59.2027 36.9401 59.4012 35.96C59.6006 34.9798 59.7508 33.9902 59.8512 32.995C59.9507 31.9998 60.0004 31.0002 60 30C60 29.2923 59.975 28.5847 59.925 27.8787C59.9018 27.671 59.8763 27.4635 59.8488 27.2563L40.8275 8.235C40.599 8.00648 40.3286 7.824 40.0313 7.6975C39.7249 7.56705 39.3954 7.49987 39.0625 7.5H20.3125C18.9375 7.5 17.8125 8.625 17.8125 10V50C17.8125 50.6875 18.0938 51.3125 18.5475 51.765L26.5675 59.785Z" fill="#FF7712"/>
<path d="M20.3125 7.5C18.9375 7.5 17.8125 8.625 17.8125 10V50C17.8125 51.375 18.9375 52.5 20.3125 52.5H39.0625C40.4375 52.5 41.5625 51.375 41.5625 50V26.24C41.6443 26.2413 41.7256 26.2263 41.8015 26.1959C41.8774 26.1654 41.9465 26.1201 42.0047 26.0626C42.0629 26.0051 42.1091 25.9365 42.1405 25.861C42.1719 25.7854 42.1878 25.7043 42.1875 25.6225V24.3825C42.1887 24.2997 42.1733 24.2176 42.1424 24.1408C42.1115 24.0641 42.0657 23.9942 42.0075 23.9353C41.9493 23.8765 41.88 23.8298 41.8036 23.7979C41.7272 23.7661 41.6453 23.7498 41.5625 23.75V23.735C41.6443 23.7363 41.7256 23.7213 41.8015 23.6909C41.8774 23.6604 41.9465 23.6151 42.0047 23.5576C42.0629 23.5001 42.1091 23.4315 42.1405 23.356C42.1719 23.2804 42.1878 23.1993 42.1875 23.1175V21.8775C42.1885 21.7948 42.1731 21.7127 42.1421 21.636C42.1111 21.5593 42.0653 21.4895 42.0071 21.4307C41.949 21.3719 41.8797 21.3252 41.8034 21.2933C41.7271 21.2614 41.6452 21.245 41.5625 21.245V19.5388C41.7272 19.5342 41.8834 19.465 41.9976 19.3462C42.1117 19.2274 42.1745 19.0685 42.1725 18.9038V18.135C42.1752 17.9701 42.1126 17.8108 41.9983 17.6918C41.884 17.5729 41.7274 17.5039 41.5625 17.5V10C41.5625 8.625 40.4375 7.5 39.0625 7.5H20.3125ZM20.3125 8.75H39.0625C39.7663 8.75 40.3125 9.29625 40.3125 10V15H19.0625V10C19.0625 9.29625 19.6087 8.75 20.3125 8.75ZM27.1875 11.25C27.0217 11.25 26.8628 11.3158 26.7456 11.4331C26.6283 11.5503 26.5625 11.7092 26.5625 11.875C26.5625 12.0408 26.6283 12.1997 26.7456 12.3169C26.8628 12.4342 27.0217 12.5 27.1875 12.5C27.3533 12.5 27.5122 12.4342 27.6294 12.3169C27.7467 12.1997 27.8125 12.0408 27.8125 11.875C27.8125 11.7092 27.7467 11.5503 27.6294 11.4331C27.5122 11.3158 27.3533 11.25 27.1875 11.25ZM29.675 11.25C28.83 11.2375 28.83 12.5125 29.675 12.5H32.1975C33.0425 12.5125 33.0425 11.2375 32.1975 11.25H29.675ZM19.0625 16.25H40.3125V43.75H19.0625V16.25ZM37.7275 22.52L32.4175 24.29L24.3525 32.3525L24.3438 32.3412L22.6713 34.0112C22.4158 34.271 22.2727 34.6207 22.2727 34.985C22.2727 35.3493 22.4158 35.699 22.6713 35.9587L24.26 37.5487C24.5262 37.815 24.88 37.9462 25.235 37.9462C25.5888 37.9462 25.9425 37.815 26.2087 37.5487L27.8787 35.8762H27.8737L27.8838 35.8638L35.9575 27.8325L37.7275 22.52ZM35.75 24.4975L35.0075 26.7262L33.52 25.2388L35.75 24.4975ZM32.495 25.9813L34.2625 27.7487L27.4388 34.5437L25.6713 32.8025L32.495 25.9813ZM24.78 33.6737L26.56 35.43L25.325 36.6675C25.2675 36.725 25.2013 36.725 25.1438 36.6675L23.5563 35.0775C23.5 35.02 23.5 34.9537 23.5563 34.8975L24.7813 33.6737H24.78ZM19.0625 45H40.3125V50C40.3125 50.7038 39.765 51.25 39.0625 51.25H20.3125C19.6087 51.25 19.0625 50.7038 19.0625 50V45ZM29.7625 46.875C29.035 46.875 28.43 47.4775 28.43 48.205C28.43 48.9338 29.035 49.5387 29.7625 49.5387C30.4912 49.5387 31.0963 48.9338 31.0963 48.205C31.0963 47.4775 30.4912 46.875 29.7625 46.875Z" fill="white"/>
</g>
<defs>
<clipPath id="clip0_46_660">
<rect width="60" height="60" fill="white"/>
</clipPath>
</defs>
</svg>
