<svg width="92" height="92" viewBox="0 0 92 92" fill="none" xmlns="http://www.w3.org/2000/svg">
<g clip-path="url(#clip0_46_755)">
<path d="M46 92C71.4051 92 92 71.4051 92 46C92 20.5949 71.4051 0 46 0C20.5949 0 0 20.5949 0 46C0 71.4051 20.5949 92 46 92Z" fill="#50B748"/>
<path d="M44.107 91.9045C44.7373 91.9493 45.3684 91.9812 46 92C47.0862 91.9995 48.172 91.9606 49.2554 91.8832C50.784 91.7753 52.3063 91.5911 53.8165 91.3313C55.328 91.0689 56.8255 90.7312 58.3033 90.3192C59.7819 89.9111 61.2392 89.4293 62.6697 88.8756C64.0979 88.3195 65.4973 87.6924 66.8628 86.9966C68.2294 86.3005 69.5604 85.5364 70.8507 84.7072C72.1411 83.8796 73.3894 82.988 74.5908 82.0357C75.7931 81.082 76.9469 80.0687 78.0479 78.9997C79.1484 77.931 80.1947 76.8079 81.183 75.6346C82.1705 74.461 83.0988 73.2387 83.9642 71.9723C84.8311 70.7064 85.6342 69.3979 86.3703 68.0517C87.1065 66.706 87.775 65.3242 88.3731 63.9117C88.9696 62.4999 89.4951 61.0591 89.9477 59.5948C90.1776 58.7868 90.3852 57.9726 90.5705 57.1532L54.7825 21.3723L54.7471 21.3299C53.6012 20.1774 52.2353 19.2628 50.7348 18.6386C49.2343 18.0143 47.6252 17.6928 46 17.6923C44.1627 17.6984 42.3497 18.1121 40.6915 18.9035C39.0334 19.695 37.5715 20.8444 36.4112 22.269C35.251 23.6936 34.4212 25.3579 33.9818 27.1419C33.5424 28.9259 33.5043 30.7852 33.8702 32.5857C34.3522 34.9617 35.5282 37.1414 37.2494 38.8488L37.2565 38.8523L44.4396 46.0354H34.631C29.1923 46.0354 24.741 50.4337 24.741 55.8546V72.5385C24.741 73.0077 24.9274 73.4577 25.2592 73.7895C25.591 74.1213 26.041 74.3077 26.5102 74.3077L44.107 91.9045Z" fill="#10A711"/>
<path d="M45.9977 17.7005C42.7133 17.7095 39.5662 19.0193 37.2451 21.3432C34.9241 23.667 33.6181 26.8158 33.6132 30.1002C33.6181 33.3843 34.9242 36.5326 37.2453 38.8559C39.5665 41.1792 42.7136 42.4883 45.9977 42.4962C49.2818 42.4883 52.429 41.1792 54.7501 38.8559C57.0713 36.5326 58.3773 33.3843 58.3823 30.1002C58.3773 26.8158 57.0714 23.667 54.7504 21.3432C52.4293 19.0193 49.2822 17.7095 45.9977 17.7005ZM45.9977 21.2437C50.9033 21.2437 54.8428 25.1871 54.8428 30.1002C54.8468 31.2634 54.6208 32.4158 54.1778 33.4914C53.7349 34.5669 53.0837 35.5445 52.2617 36.3676C51.4397 37.1906 50.4632 37.8431 49.3882 38.2875C48.3132 38.7318 47.1609 38.9593 45.9977 38.9568C44.8345 38.9593 43.6823 38.7318 42.6073 38.2875C41.5323 37.8431 40.5558 37.1906 39.7338 36.3676C38.9118 35.5445 38.2606 34.5669 37.8177 33.4914C37.3747 32.4158 37.1487 31.2634 37.1527 30.1002C37.1487 28.937 37.3747 27.7846 37.8177 26.7091C38.2606 25.6335 38.9118 24.6559 39.7338 23.8329C40.5558 23.0098 41.5323 22.3573 42.6073 21.913C43.6823 21.4686 44.8345 21.2412 45.9977 21.2437ZM34.6282 46.0357C29.1906 46.0357 24.7417 50.4431 24.7417 55.8656V72.5446C24.7427 73.0136 24.9291 73.463 25.26 73.7947C25.591 74.1264 26.0396 74.3133 26.5077 74.3143H65.4953C65.9634 74.3123 66.4116 74.1243 66.7419 73.792C67.0722 73.4596 67.2576 73.0095 67.2576 72.5404V55.8693C67.2576 50.4468 62.8049 46.0431 57.3673 46.0431H34.6282V46.0357ZM34.6282 49.5826H57.3673C60.9257 49.5826 63.7256 52.3676 63.7256 55.8656V70.7707H28.2737V55.8656C28.2737 52.3676 31.0698 49.5826 34.6282 49.5826Z" fill="white"/>
</g>
<defs>
<clipPath id="clip0_46_755">
<rect width="92" height="92" fill="white"/>
</clipPath>
</defs>
</svg>
